<?xml version="1.0" encoding="UTF-8" standalone="no"?>
<!-- Created with Inkscape (http://www.inkscape.org/) -->
<svg xmlns:inkscape="http://www.inkscape.org/namespaces/inkscape" xmlns:rdf="http://www.w3.org/1999/02/22-rdf-syntax-ns#" xmlns="http://www.w3.org/2000/svg" xmlns:xlink="http://www.w3.org/1999/xlink" xmlns:ns1="http://sozi.baierouge.fr" xmlns:cc="http://creativecommons.org/ns#" xmlns:dc="http://purl.org/dc/elements/1.1/" xmlns:sodipodi="http://sodipodi.sourceforge.net/DTD/sodipodi-0.dtd" id="svg2" sodipodi:docname="New document 1" viewBox="0 0 356.71 400.07" version="1.1" inkscape:version="0.48.4 r9939">
  <sodipodi:namedview id="base" bordercolor="#666666" inkscape:pageshadow="2" inkscape:window-y="0" fit-margin-left="0" pagecolor="#ffffff" fit-margin-top="0" inkscape:window-maximized="1" inkscape:zoom="0.98994949" inkscape:window-x="0" inkscape:window-height="715" showgrid="false" borderopacity="1.0" inkscape:current-layer="layer1" inkscape:cx="389.677" inkscape:cy="127.45431" fit-margin-right="0" fit-margin-bottom="0" inkscape:window-width="1366" inkscape:pageopacity="0.0" inkscape:document-units="px"/>
  <g id="layer1" inkscape:label="Layer 1" inkscape:groupmode="layer" transform="translate(419.79 -176.29)">
    <path id="path3050" style="fill:#000000" inkscape:connector-curvature="0" d="m-419.76 543.2 0.0242-33.164 1.387 1.8068c0.76284 0.99374 2.1844 2.5037 3.159 3.3555 0.97457 0.85178 3.6847 3.4071 6.0225 5.6785 7.942 7.7164 17.908 16.261 18.966 16.261 0.25924 0 1.7422 1.1615 3.2955 2.5811s3.1067 2.5812 3.4519 2.5812c0.34526 0 1.0815 0.34525 1.6362 0.76727 2.3476 1.7862 9.2093 6.5419 10.476 7.2606 0.75541 0.42867 2.0704 1.2344 2.9222 1.7905 0.85178 0.55608 1.8971 1.1465 2.323 1.3122 0.42589 0.16555 1.1228 0.52381 1.5487 0.79607 0.42589 0.27231 2.5166 1.3326 4.6461 2.3562 2.1294 1.0237 4.4257 2.2941 5.1028 2.8232 0.67712 0.52909 1.7521 0.962 2.3889 0.962 0.63676 0 1.4469 0.34845 1.8004 0.77434 0.35346 0.42589 0.94383 0.77434 1.312 0.77434 0.36811 0 1.327 0.3371 2.1308 0.7491 4.0792 2.0908 6.3954 2.8645 8.5754 2.8645 3.5879 0 3.7805-0.66186 2.6866-9.2358-1.3149-10.306-1.4598-10.726-4.8291-13.995-1.6096-1.5616-3.7582-3.4601-4.7746-4.2188l-1.8481-1.3796 0.73082-4.8151c0.40195-2.6484 0.64962-6.2154 0.55038-7.9266-0.33939-5.8525-5.936-14.995-11.447-18.699-3.0308-2.0372-6.6522-2.283-9.8225-0.66673-2.2345 1.1392-3.2758 0.84416-6.4516-1.8281-2.1768-1.8316-2.9603-3.4816-3.412-7.185-0.40648-3.3329-1.6308-6.9686-2.3467-6.9686-0.24252 0-1.3457-1.3357-2.4515-2.9683-1.7994-2.6566-3.5781-5.783-9.7656-17.165-1.0033-1.8455-3.1886-5.4706-4.8562-8.0558l-3.032-4.7003 1.3626-4.8499c1.8863-6.7141 2.0677-10.597 0.75001-16.048-1.4434-5.9708-1.401-11.336 0.11191-14.162 2.5218-4.7094 6.7234-10.518 7.608-10.518 0.23621 0-0.69116 2.3811-2.0608 5.2914-3.1635 6.7217-3.6262 8.4604-3.6297 13.638-0.004 5.4839 0.16022 5.8498 2.6216 5.8498 2.4556 0 3.1042-0.86631 4.5356-6.0586 0.56642-2.0546 1.1777-3.9748 1.3585-4.2673 0.69148-1.1188 1.2898 0.1711 1.2898 2.7808 0 2.5743-1.1593 7.0931-4.6854 18.263-2.4356 7.7155-1.8602 11.385 2.4028 15.324 2.142 1.9792 5.2833 6.9878 8.2066 13.085 2.0986 4.3773 5.1223 6.9065 10.962 9.1691 7.4116 2.8718 9.2232 3.3268 13.245 3.3268 3.4998 0 3.7136 0.073 5.5957 1.9108 2.7139 2.6501 3.2692 1.9536 3.1798-3.9889-0.0823-5.4709-1.1904-10.345-3.8833-17.082-1.0913-2.7298-1.9842-5.1493-1.9842-5.3766 0-0.22727 1.376-1.8462 3.0579-3.5977 3.4923-3.6369 3.465-3.5412 3.888-13.593 0.34817-8.2731 1.3954-13.866 3.2746-17.488 0.76705-1.4783 2.7189-5.2264 4.3374-8.3292 3.8383-7.3582 5.1637-11.297 4.7615-14.15-0.17001-1.206-1.8154-8.3855-3.6564-15.955-3.9013-16.039-2.8189-14.656-11.791-15.066-6.5086-0.29746-8.5178-0.86303-8.5178-2.3977 0-0.57853 2.6715-6.3789 5.9366-12.89 3.2652-6.5109 5.9334-12.141 5.9295-12.512-0.004-0.37069-1.2985-2.184-2.8768-4.0295s-3.7239-5.1774-4.768-7.4041l-1.8983-4.0486-7.4853 0.31399c-9.6757 0.40588-10.406 0.60811-11.238 3.1129-0.72649 2.1871-1.0378 14.787-0.41298 16.715 0.34039 1.0504 0.23762 1.1819-0.80669 1.0324-0.65823-0.0942-1.4896-0.75203-1.8474-1.4618-0.78183-1.5509-0.83946-7.7316-0.13452-14.425 0.52-4.9376 1.4328-7.2563 2.8567-7.2563 0.43065 0 1.6937-0.46461 2.8068-1.0325 1.1131-0.56785 2.6719-1.052 3.464-1.0759 0.79211-0.0239 3.6471-1.2488 6.3444-2.722l4.9042-2.6786v-4.6343-4.6343l2.713-0.15613 2.713-0.15613-1.2934 1.9059c-0.71137 1.0483-1.2934 2.4593-1.2934 3.1356 0 1.5156 3.2257 9.9257 5.0171 13.081 0.72547 1.2777 1.6746 3.0199 2.1093 3.8717 0.43463 0.85178 1.6398 2.8264 2.6782 4.388 3.5266 5.3035 4.3394 9.4492 2.3276 11.873-0.35345 0.42589-1.0572 2.0467-1.5638 3.6019-0.50662 1.5551-1.2042 3.1106-1.5501 3.4565-1.117 1.117-2.5329 7.3239-2.007 8.7978 0.51253 1.4363 0.0617 1.3513 9.9208 1.8704l3.7685 0.1984 1.7351 2.6931c0.95428 1.4812 1.9747 3.3137 2.2676 4.0723 0.29286 0.75856 1.1537 3.0053 1.913 4.9928 0.75931 1.9875 1.8351 4.0782 2.3906 4.6461 1.0079 1.0303 1.0144 1.0276 3.0657-1.2602 1.1306-1.261 3.2408-4.677 4.6894-7.5911l2.6338-5.2985 0.4188-11.509c0.58836-16.169 1.1863-21.257 4.0524-34.482 2.7572-12.722 3.9083-20.589 3.48-23.782-0.15256-1.1374-0.87908-2.8568-1.6145-3.821-0.85281-1.1181-1.3371-2.4105-1.3371-3.5683 0-0.9984 0.92922-7.85 2.0649-15.226 1.1357-7.3758 2.0649-14.11 2.0649-14.966 0-1.0324-0.92709-2.9111-2.757-5.5869-4.3556-6.3689-5.2772-8.9356-3.2085-8.9356 0.37647 0 1.0619 0.57592 1.5231 1.2798 1.7029 2.5989 5.9474 3.55 9.288 2.0812 0.72115-0.31707 0.91215-0.24309 0.73608 0.28513-0.13078 0.39232-0.80131 0.84752-1.4901 1.0116-1.1637 0.27716-1.234 0.47909-0.99419 2.8535 0.59394 5.8797 0.1636 11.363-1.4783 18.837-0.28315 1.2888-0.58905 5.1055-0.67978 8.4814l-0.16497 6.1381 2.1714 1.5379c1.8157 1.286 2.3019 1.4296 2.9683 0.87652 0.68068-0.5649 0.79452-0.48274 0.7805 0.56336-0.009 0.67359-0.35749 1.6756-0.77435 2.2268-0.41686 0.55113-0.76608 1.8288-0.77606 2.8392-0.01 1.0105-0.35026 3.3472-0.75621 5.1927-0.81892 3.723-1.0411 10.304-0.32157 9.5244 0.24903-0.26973 0.86024-1.7681 1.3582-3.3297 0.49801-1.5616 2.0846-5.2784 3.5257-8.2597 2.5148-5.2023 2.6274-5.3454 2.7985-3.5553 0.0981 1.0258-0.4009 4.1619-1.1088 6.9691-1.9683 7.8051-2.9551 15.719-2.7874 22.356 0.0917 3.6278 0.3629 5.9655 0.70536 6.0791 0.30604 0.10149 1.3004-1.9703 2.2096-4.604 0.90924-2.6337 1.8658-5.1302 2.1257-5.5479 0.93308-1.4996 1.1662 0.0133 0.59443 3.8576-0.77507 5.2112-0.74941 5.6218 0.43997 7.0402 0.81988 0.97771 1.1145 1.0784 1.4898 0.50911 0.3147-0.47729 0.58935 0.50004 0.83894 2.9854 0.36479 3.6324 0.40456 3.7121 2.3469 4.703 1.0867 0.55438 2.1214 1.2436 2.2994 1.5316 0.17798 0.28799 0.77451 0.52361 1.3256 0.52361 0.5511 0 1.002 0.20645 1.002 0.45878s0.82728 0.61397 1.8384 0.80366 6.4702 1.8502 12.131 3.69l10.293 3.3451v5.4015c0 4.9293 0.44909 6.6338 1.2191 4.6271 0.16343-0.42589 0.54614-0.77434 0.85048-0.77434 0.30433 0 1.2214-0.49395 2.038-1.0977 1.5636-1.1561 2.9818-1.1703 14.027-0.14129 6.639 0.61854 10.686-1.083 13.817-5.8091 1.885-2.8458 2.9148-6.1298 5.4793-17.473 2.1521-9.519 2.5114-15.877 1.0253-18.145-0.64683-0.98719-0.71837-1.4725-0.28148-1.9094 0.4369-0.43689 0.6934-0.41166 1.0092 0.0993 0.23286 0.37678 0.62972 0.63083 0.8819 0.56454 0.97887-0.25729 2.3095 3.1953 2.823 7.3245 1.0229 8.2262 1.177 8.8181 2.5649 9.847 1.2141 0.90004 1.4335 0.91403 2.8393 0.181 0.85571-0.44621 2.8318-0.79582 4.5084-0.7976 4.0731-0.004 6.2711-1.014 7.5073-3.4487 0.55151-1.0862 2.7599-7.2017 4.9076-13.59 3.5763-10.638 3.988-12.301 4.8934-19.761 0.54375-4.4802 1.1557-8.3128 1.3598-8.517 0.90801-0.908 1.8354 1.7839 1.8354 5.3274 0 6.2974 1.3568 8.4058 4.136 6.4269 2.2438-1.5977 6.6121-3.7875 10.262-5.1444 1.8147-0.67458 4.0371-1.9641 4.9386-2.8657 1.3679-1.3679 2.185-1.7009 4.938-2.0124 1.8144-0.20527 4.0796-0.69943 5.0338-1.0981 3.6491-1.5247 20.758-2.5291 21.54-1.2646 0.44813 0.72509 2.99 0.64332 4.0118-0.12905 1.5326-1.1586 5.2142-21.39 4.9204-27.04-0.1327-2.5514-0.33827-3.0956-1.3613-3.6035-0.66274-0.32905-1.4642-0.85747-1.781-1.1743-0.31681-0.31681-0.86769-0.57602-1.2242-0.57602-0.35649 0-1.5275-0.59672-2.6022-1.326-1.0747-0.72933-3.6984-2.1505-5.8305-3.1581-2.132-1.0077-5.3864-2.7089-7.232-3.7805-1.8455-1.0716-4.517-2.2933-5.9366-2.7149-1.4196-0.42157-3.5104-1.168-4.6461-1.6588-9.8924-4.2749-27.849-9.785-39.492-12.118-20.612-4.1303-28.426-4.8699-51.365-4.8621-19.224 0.007-24.975 0.44131-40.451 3.0578-8.2128 1.3885-24.197 4.9788-27.58 6.1948-1.1967 0.43016-4.8474 1.604-8.1125 2.6086-15.137 4.6571-38.24 15.144-48.526 22.027-2.6973 1.8049-6.5303 4.364-8.5178 5.687-1.9875 1.3229-4.4599 3.0503-5.4943 3.8386-11.76 8.9624-16.971 13.501-27.157 23.654l-7.8725 7.8465v-61.881-61.881h178.36 178.36v66.108c0 40.722-0.18471 65.994-0.48107 65.81-0.26462-0.16353-0.555 0.29684-0.64529 1.023-0.14826 1.1924-0.61447 0.81074-4.8103-3.9384-8.0561-9.1186-17.156-18.651-21.56-22.585-4.4736-3.996-17.584-14.203-20.06-15.617-0.79902-0.45646-2.2576-1.4437-3.2412-2.194-0.98361-0.75023-2.1241-1.364-2.5345-1.364-1.265 0-2.5891 4.9966-3.2147 12.131-0.41609 4.7449-0.41678 4.5111 0.0163 5.5553 0.28958 0.69826 0.18406 0.83518-0.45474 0.59005-0.7044-0.2703-0.83722 0.14398-0.86704 2.7044-0.0194 1.663-0.4259 4.5335-0.9034 6.379l-0.86818 3.3555-2.5812 0.34194c-1.4196 0.18807-6.9051 0.3623-12.19 0.38717-9.3595 0.044-14.62 0.57956-15.632 1.5912-0.92299 0.92299 0.86393 3.2648 7.5351 9.8749l6.5769 6.5167-0.4862 6.6472c-0.26741 3.6559-0.49298 9.2281-0.50126 12.383-0.008 3.1545-0.16175 6.8058-0.34104 8.1138-0.30368 2.2156-0.47147 2.4315-2.4521 3.1552-1.1694 0.4273-3.9002 1.0096-6.0686 1.294-4.3491 0.57049-13.43 3.6019-14.973 4.9982-0.63093 0.57099-1.1617 0.71163-1.4809 0.39242-0.7661-0.7661-4.5982-11.228-5.7215-15.62-1.1949-4.6721-0.99036-5.9012 0.71542-4.2987 0.82026 0.77059 1.3786 0.94528 1.9224 0.60146 0.4215-0.26651 1.5497-0.48813 2.5071-0.49247 1.6855-0.008 1.7165 0.0286 0.97611 1.1436-0.42053 0.63334-1.32 1.2881-1.9988 1.455-1.0625 0.26123-1.2216 0.58586-1.1437 2.333 0.0798 1.7888 2.8105 9.2334 3.7038 10.098 0.63876 0.61794 4.3305 1.0669 3.9694 0.48271-0.18666-0.30204-0.004-0.54915 0.40604-0.54915 0.41 0 1.1236-0.57708 1.5857-1.2824 0.46213-0.70531 1.4761-1.4233 2.2533-1.5955 0.77721-0.17222 2.3423-0.74218 3.478-1.2666 1.1357-0.5244 2.936-1.3273 4.0008-1.7842 1.0647-0.45692 1.9359-1.0251 1.9359-1.2626 0-0.23749 0.44867-0.54913 0.99705-0.69254 1.6123-0.42163 2.1828-3.6134 1.551-8.6775-0.72072-5.7767-1.3426-8.4361-2.5052-10.714-1.2179-2.3862-1.8074-2.8827-7.7159-6.4983-2.6586-1.6269-6.5673-4.2399-8.686-5.8068l-3.8521-2.8488-3.1873 1.9549c-10.261 6.2932-9.9017 5.978-10.902 9.5724-0.50268 1.806-1.0938 3.516-1.3135 3.8-0.21975 0.28393-0.53261 1.3293-0.69524 2.323-0.27691 1.692-1.6451 7.2934-4.0668 16.649-0.56969 2.201-1.6784 4.8889-2.4639 5.9731-2.0974 2.8954-6.4496 5.5547-11.154 6.8153-4.9606 1.3294-9.7128 3.7861-11.105 5.7407-1.6421 2.3061-3.8237 7.481-5.6268 13.347-1.9153 6.231-3.477 9.547-5.6759 12.051-2.2989 2.6183-2.1853 5.3515 0.31343 7.5454 1.299 1.1405 2.1195 1.5142 2.7102 1.2341 0.46592-0.22091 2.6032-0.43535 4.7496-0.47652 6.6115-0.12681 8.6959-0.62044 10.376-2.4572 2.6759-2.9255 3.6748-5.6616 3.436-9.4116-0.2848-4.4726-1.0309-5.2309-4.3296-4.4003-3.289 0.82818-4.0766 0.0688-1.9994-1.9278 2.132-2.0492 3.3545-2.4223 3.6932-1.1272 0.1488 0.56902 0.45917 1.0346 0.68969 1.0346 0.23054 0 0.73511 0.29038 1.1213 0.64528 1.5017 1.3801 2.9196 1.9434 3.3085 1.3143 0.59695-0.96587 1.1852 1.1604 0.88612 3.2027-0.14553 0.99374-0.59316 3.4804-0.99473 5.526-0.57854 2.947-0.60129 4.0019-0.10958 5.0811 0.55274 1.2131 0.48535 1.4639-0.61674 2.2952-1.2891 0.97236-3.7029 1.5367-6.6142 1.5464-0.93804 0.003-4.1357 0.81874-7.1059 1.8125-5.3796 1.7999-8.4822 2.272-8.4822 1.2906 0-0.28393-0.29038-0.51849-0.64529-0.52125-0.3549-0.003-1.6878-0.83364-2.962-1.8464-3.57-2.8376-9.6758-5.6154-12.248-5.5723-2.9095 0.0488-8.5292 2.8458-10.25 5.1013-2.5594 3.3556-4.296 9.7763-3.6195 13.382 0.37564 2.0023 3.4294 6.6937 8.6401 13.273 3.1466 3.9733 3.8821 4.6015 6.7582 5.7718 1.775 0.72228 3.8081 1.4474 4.5179 1.6112 1.794 0.41424 3.1414 1.6876 4.8035 4.5392 1.5919 2.7313 2.8634 3.6689 4.0002 2.9497 0.41059-0.25977 1.2763-0.47587 1.9239-0.48021 1.4454-0.01 8.4395-3.9022 9.138-5.0856 0.84575-1.433 2.3166-6.4482 2.3247-7.9266 0.004-0.76404 0.22204-1.5217 0.48412-1.6837 0.26208-0.16197 0.62904-0.98896 0.81547-1.8378 0.40943-1.8641 1.6436-2.2682 4.9881-1.633 2.1353 0.40549 2.5743 0.32159 3.8717-0.73983 0.83088-0.67976 2.1753-1.2052 3.1106-1.2158 0.906-0.0102 1.7804-0.23392 1.943-0.49713 0.16267-0.26322 1.1637-0.73797 2.2244-1.055 1.0608-0.31705 2.8579-1.0144 3.9936-1.5497 2.9698-1.3998 7.4916-3.0562 9.2996-3.4065 1.2058-0.23368 1.9846 0.0271 3.4595 1.1583 3.837 2.943 6.1735 4.5572 6.5964 4.5572 0.23831 0 0.60752 0.17423 0.82046 0.38717 0.21295 0.21294 0.99891 0.38717 1.7466 0.38717 0.74767 0 1.6375 0.27808 1.9774 0.61795 0.33987 0.33987 1.9123 0.63025 3.4944 0.64529 2.1952 0.0209 2.9935-0.18154 3.3707-0.85463 0.27184-0.48507 0.78169-0.77166 1.133-0.63684 0.78563 0.30147 2.2928-2.4917 2.6624-4.9341 0.15037-0.99374 0.51279-6.2206 0.80537-11.615 0.51398-9.4763 1.1025-13.164 2.101-13.164 0.26191 0 0.47719 0.29038 0.47841 0.64528 0.001 0.35491 0.68437 1.6736 1.5181 2.9303 1.0798 1.6277 1.3852 2.5292 1.0616 3.134-1.0401 1.9434-2.5981 9.2854-3.3534 15.802-1.0132 8.7416-1.69 10.563-4.268 11.483-3.4456 1.2307-9.9437 0.36592-16.85-2.2424l-3.5631-1.3457-1.7521 1.6982c-0.96367 0.93402-2.8144 3.5102-4.1127 5.7247l-2.3606 4.0265 0.52563 7.0771c0.34207 4.6056 0.34966 7.2925 0.0217 7.694-0.27714 0.33932-1.7056 1.3678-3.1744 2.2854-1.4688 0.91768-3.1814 2.1213-3.8058 2.6748-1.5125 1.3407-2.7365 0.80669-2.7365-1.194 0-0.87218-0.48193-2.2376-1.071-3.0343-1.164-1.5744-2.0791-6.1494-1.1102-5.5506 0.30643 0.18938 0.83576 1.2122 1.1763 2.273 0.34053 1.0608 0.97424 2.3352 1.4082 2.8321 0.85767 0.98191 2.1778 1.2166 2.1778 0.38717 0-0.28392 0.43616-0.51623 0.96925-0.51623 1.9756 0 2.3862-1.3766 2.3862-7.9999 0-9.4104-0.25226-9.6592-9.8936-9.7602-4.7451-0.0497-4.7619-0.0453-6.5851 1.7198-1.9374 1.8756-2.5906 3.4209-3.1292 7.4032-0.52776 3.9017-1.6015 4.6731-9.4221 6.7688-3.7578 1.007-8.0778 2.42-9.6 3.1402-1.5223 0.72016-3.1471 1.3094-3.6106 1.3094-0.46357 0-4.0418-2.9072-7.9517-6.4605-10.58-9.615-16.1-13.156-20.506-13.156-2.4546 0-4.1544 2.2553-5.1552 6.84-0.17045 0.7808-0.52906 1.4196-0.7969 1.4196-0.75722 0-4.0087-7.1426-4.9424-10.857-1.0815-4.3026-1.8725-5.4897-3.9547-5.935-0.93238-0.19942-1.9353-0.55477-2.2288-0.78967-0.29344-0.2349-0.79466-0.26571-1.1138-0.0685-1.551 0.95859-5.1976 9.3903-9.2038 21.281-5.2837 15.683-5.1682 15.254-4.4876 16.668 2.1269 4.4216 5.7885 12.756 5.7885 13.175 0 0.28083 0.17422 0.58803 0.38717 0.68267 0.21294 0.0947 0.92511 1.2434 1.5826 2.5528l1.1954 2.3808-1.8882 3.5559c-1.7767 3.346-1.8767 3.7844-1.694 7.4276 0.1744 3.478 0.57384 4.727 3.9276 12.281 4.2931 9.6697 4.558 10.181 6.2977 12.157 3.1014 3.5222 5.7024 3.7156 10.615 0.78915 6.0467-3.6018 6.7332-4.4928 8.4785-11.006 0.58565-2.1854 1.9135-5.6404 2.9508-7.6778l1.886-3.7043 0.49813 1.6751 0.49812 1.6751 4.4431-0.28844c3.494-0.22682 4.2403-0.16014 3.4937 0.31217-0.52217 0.33034-1.4777 0.49962-2.1234 0.37618-0.93471-0.17867-1.1235-0.0313-0.92626 0.72296 0.28289 1.0818-0.87805 1.2745-2.4878 0.41299-0.7764-0.41552-0.99852-0.36584-0.99852 0.22333 0 0.41674-0.48581 0.9119-1.0796 1.1004-1.5475 0.49115-2.534 3.2989-2.534 7.2119 0 2.5356 0.19487 3.463 0.77434 3.6854 0.42589 0.16344 0.77434 0.77291 0.77434 1.3544 0 1.0346 0.0228 1.0366 1.0627 0.0955 1.2694-1.1488 2.6023-0.57235 3.171 1.3714 0.19906 0.68041 0.70202 2.3774 1.1177 3.771 0.72575 2.4333 0.71137 2.5721-0.36193 3.4963-0.61472 0.5293-1.9307 1.4003-2.9245 1.9356-2.0925 1.1271-10.681 8.2565-13.624 11.309l-2.009 2.0839 1.2347 1.5489c2.433 3.0522 4.4818 6.0315 5.3696 7.808 0.49656 0.99374 1.7204 2.9303 2.7196 4.3036l1.8168 2.4967 2.6335-0.29575c3.7253-0.4184 4.0081-0.41892 5.6762-0.0103 1.7087 0.41835 1.8936 0.56723 7.6604 6.1694 5.765 5.6003 6.7687 6.0218 14.253 5.9854 3.3098-0.016 7.7623-0.17846 9.8943-0.36079l3.8764-0.33157 4.6508 4.0566c5.9775 5.2138 8.3356 7.0365 10.569 8.1689 0.99374 0.50399 2.1552 1.199 2.5811 1.5446 0.71124 0.57709 6.4464 2.2805 8.9899 2.6701 11.377 1.7427 19.798 1.5728 27.404-0.55288 5.9934-1.675 6.1581-1.7357 17.036-6.2828 4.5428-1.899 9.0686-3.9988 10.057-4.666 0.98867-0.66733 2.0121-1.2133 2.2743-1.2133s1.2103-0.55954 2.107-1.2434c0.89661-0.6839 2.4634-1.5916 3.4818-2.0171 1.0184-0.42553 3.3148-1.7244 5.1031-2.8864s3.6414-2.1127 4.118-2.1127c0.47664 0 1.1554-0.34793 1.5083-0.7732 0.74879-0.90222 6.6439-4.9053 7.2238-4.9053 0.21682 0 0.71307-0.38811 1.1027-0.86252 0.38964-0.47436 1.7538-1.5172 3.0315-2.3173 2.7558-1.7259 12.72-10.589 19.639-17.469 6.0452-6.0114 12.163-13.323 13.176-15.747 0.41489-0.99289 0.86732-1.8052 1.0055-1.8052 0.13814 0 0.25115 16.255 0.25115 36.123v36.123l-178.36 0.009-178.36 0.009 0.0243-33.164zm258.09-128.92c0-0.28393-0.2323-0.51623-0.51622-0.51623-0.28393 0-0.51623 0.2323-0.51623 0.51623 0 0.28392 0.2323 0.51623 0.51623 0.51623 0.28392 0 0.51622-0.23231 0.51622-0.51623zm4.0929 104.64c-1.8658-0.67554-4.6535-1.9041-6.1948-2.73l-2.8023-1.5017-0.60585-5.8094c-0.85021-8.1526-1.2231-9.0454-4.7887-11.467-1.6416-1.1148-3.5966-2.7541-4.3445-3.643-1.2426-1.4767-1.3599-2.0063-1.3599-6.1391 0-3.645 0.34655-5.7007 1.7853-10.59 2.0287-6.8942 3.5733-9.8548 6.3248-12.123 2.9881-2.4631 5.1839-3.2704 10.208-3.7535 7.2081-0.69297 9.2318-0.54494 12.475 0.91251 0.89469 0.40203 2.0562 0.73446 2.5812 0.73873 1.4822 0.0121 5.0264 1.3673 5.2383 2.0029 0.10458 0.31375 0.53077 0.57044 0.9471 0.57044 1.3561 0 3.9509 1.6278 7.6546 4.8021 4.6449 3.9809 4.985 5.129 5.099 17.213l0.0835 8.8515-1.5946 2.2474c-0.87706 1.2361-3.0839 3.2366-4.9042 4.4456-3.689 2.4502-4.6615 3.494-4.2513 4.563 0.37997 0.99018-0.3167 0.90935-1.5448-0.17924-0.98701-0.8749-1.0005-0.86783-0.42782 0.22418 0.81015 1.5448 0.74136 3.8077-0.18299 6.02-0.42589 1.0193-0.77435 2.4361-0.77435 3.1485 0 2.3506-1.9666 3.0632-8.9793 3.2537-5.5438 0.15063-6.6325 0.031-9.6419-1.0585zm16.04-6.0478c0-0.20102-1.3357-0.77832-2.9683-1.2829-1.6326-0.50451-3.5726-1.2213-4.3112-1.5929-0.90917-0.4574-1.5122-0.50623-1.8672-0.15119-0.28842 0.28841-2.3411 0.66179-4.5616 0.82972-2.9816 0.22549-3.7335 0.41769-2.8758 0.73496 0.63878 0.23633 1.512 0.78023 1.9405 1.2088 0.88545 0.88544 2.8287 1.0304 3.5912 0.26787 0.3375-0.33751 1.117-0.33751 2.2938 0 0.98041 0.28119 2.7465 0.51122 3.9247 0.51122 1.5071 0 2.2382 0.25037 2.4663 0.8446 0.29535 0.7697 0.41476 0.76258 1.3458-0.08 0.56193-0.50854 1.0217-1.0891 1.0217-1.2902zm-6.1912-12.389c0.86534-2.0891 0.31818-5.0667-1.2123-6.5972l-1.2408-1.2408-1.6464 1.4712c-1.1841 1.0581-1.7272 2.0741-1.9344 3.6187-0.2847 2.1231-0.26232 2.1593 1.9677 3.1829 3.0402 1.3955 3.3203 1.3656 4.066-0.4348zm12.954-6.7756c3.2356-1.0867 3.6872-1.8309 3.4677-5.7152-0.24488-4.3338-1.4262-6.1475-4.4244-6.7927-1.575-0.33892-2.6422-0.23598-4.335 0.41815-4.2176 1.6298-6.1174 3.9941-6.1174 7.6135 0 2.8846 0.61056 3.3736 5.4204 4.3413 4.0678 0.81838 3.9609 0.81597 5.9887 0.13496zm-19.725-4.3848c1.064-0.74526 1.179-1.1637 0.97973-3.566-0.28867-3.481-1.3107-4.9957-4.9515-7.3384-2.9996-1.9301-4.9575-2.2969-8.0078-1.5-1.8142 0.47396-2.9343 2.9367-2.9343 6.4516 0 4.7624 2.8519 6.5297 10.855 6.7269 1.9016 0.0468 3.2556-0.21135 4.0589-0.77403zm-40.983-90.012c0.17548-0.28393 0.42149-0.51623 0.5467-0.51623s0.22765 0.2323 0.22765 0.51623c0 0.28392-0.24602 0.51622-0.5467 0.51622s-0.40312-0.2323-0.22765-0.51622zm0.78225-5.0332c0.0144-0.70655 0.96344-1.9109 1.2668-1.6076 0.40666 0.40666-0.24112 1.9948-0.81366 1.9948-0.25354 0-0.45744-0.17422-0.45309-0.38717zm61.531-5.1363c-0.82557-2.7555-0.81949-5.4686 0.0117-5.1916 0.93891 0.31297 1.5627 3.6044 1.0547 5.565l-0.44265 1.7082-0.62366-2.0816zm-13.529-3.7991c0-0.30068 0.2323-0.40312 0.51623-0.22764 0.28392 0.17547 0.51623 0.42149 0.51623 0.54669 0 0.12521-0.23231 0.22765-0.51623 0.22765-0.28393 0-0.51623-0.24601-0.51623-0.5467zm-65.212-8.1286c-1.0524-1.1628-1.097-1.6493-0.15126-1.6493 0.39278 0 0.89455-0.52268 1.115-1.1615 0.34316-0.99416 0.43128-0.87279 0.61166 0.84238 0.25758 2.4493-0.39847 3.269-1.5754 1.9684zm-158.8-24.008c-1.2163-0.62016-1.5389-1.4871-0.66219-1.7794 0.7142-0.23807 2.9444 1.7267 2.3658 2.0843-0.27489 0.1699-1.0415 0.0327-1.7036-0.30491zm146.81-38.853c-0.96715-0.78434-0.95709-0.80257 0.28851-0.52327 0.70981 0.15916 1.581 0.29255 1.9359 0.29643 0.35491 0.004 0.64528 0.23935 0.64528 0.52327 0 0.79315-1.7489 0.61249-2.8696-0.29643zm-13.752-49.371c-1.066-0.83008-2.0401-1.0632-4.1546-0.99405-2.4949 0.0815-2.8685-0.0537-3.8622-1.3976-0.7357-0.99507-1.889-1.6866-3.4822-2.0877-2.6847-0.676-2.6753-1.6061 0.0161-1.6061 0.97699 0 1.7763-0.23231 1.7763-0.51623 0-0.89301 4.8046-0.53872 7.1545 0.52756 2.7088 1.2292 4.8699 1.3087 5.7794 0.21274 1.1106-1.3382 3.4138-2.289 5.5446-2.289 2.4277 0 3.3944-0.94206 4.2379-4.1298 0.75021-2.835 1.247-3.4747 3.3958-4.3725 2.0228-0.8452 5.8939-4.6049 5.8939-5.7244 0-0.46815 0.24471-0.65357 0.58499-0.44326 0.7929 0.49004 0.2791 7.5022-0.77231 10.54-0.44218 1.2777-1.3359 2.6685-1.9861 3.0908-0.65015 0.42229-1.8011 1.4129-2.5576 2.2013-0.7565 0.78843-2.3826 1.7848-3.6136 2.2141-1.231 0.42934-2.5286 1.1674-2.8835 1.6402-0.70748 0.94226-1.7656 1.2956-3.7426 1.2498-1.8465-0.0428-4.0841 0.94327-4.684 2.0641-0.63844 1.1929-0.90533 1.1748-2.6452-0.18002zm-83.918-16.753c-0.35667-0.14379-0.53645-0.44276-0.39949-0.66435 0.30852-0.4992 2.7675-0.0679 3.151 0.55272 0.29591 0.47881-1.6454 0.55757-2.7515 0.11163zm7.3595-3.7869c-0.17547-0.28392-0.073-0.51623 0.22765-0.51623 0.30068 0 0.5467 0.23231 0.5467 0.51623 0 0.28393-0.10244 0.51623-0.22765 0.51623-0.1252 0-0.37122-0.2323-0.5467-0.51623z"/>
  </g>
  <metadata>
    <rdf:RDF>
      <cc:Work>
        <dc:format>image/svg+xml</dc:format>
        <dc:type rdf:resource="http://purl.org/dc/dcmitype/StillImage"/>
        <cc:license rdf:resource="http://creativecommons.org/licenses/publicdomain/"/>
        <dc:publisher>
          <cc:Agent rdf:about="http://openclipart.org/">
            <dc:title>Openclipart</dc:title>
          </cc:Agent>
        </dc:publisher>
      </cc:Work>
      <cc:License rdf:about="http://creativecommons.org/licenses/publicdomain/">
        <cc:permits rdf:resource="http://creativecommons.org/ns#Reproduction"/>
        <cc:permits rdf:resource="http://creativecommons.org/ns#Distribution"/>
        <cc:permits rdf:resource="http://creativecommons.org/ns#DerivativeWorks"/>
      </cc:License>
    </rdf:RDF>
  </metadata>
</svg>
